<svg width="423" height="68" viewBox="0 0 423 68" fill="none" xmlns="http://www.w3.org/2000/svg">
<path d="M12.8463 51H0.440002V6H12.8463V51ZM76.7582 29.9375C76.7582 32.4167 76.4666 35 75.8832 37.6875C75.2999 40.375 74.477 43 73.4145 45.5625C72.3728 48.1042 71.1124 50.5104 69.6332 52.7812C68.1541 55.0521 66.5082 57.0208 64.6957 58.6875L60.727 56.5312C61.3312 55.4479 61.8832 54.2292 62.3832 52.875C62.8832 51.5208 63.3416 50.0938 63.7582 48.5938C64.1749 47.0938 64.5395 45.5521 64.852 43.9688C65.1645 42.3854 65.4249 40.8125 65.6332 39.25C65.8624 37.6667 66.0291 36.1354 66.1332 34.6562C66.2374 33.1771 66.2895 31.7917 66.2895 30.5C66.2895 29.7708 66.2687 28.9792 66.227 28.125C66.1853 27.2708 66.0916 26.4167 65.9457 25.5625C65.8207 24.7083 65.6228 23.8958 65.352 23.125C65.0812 22.3333 64.7062 21.6354 64.227 21.0312C63.7687 20.4062 63.1853 19.9167 62.477 19.5625C61.7895 19.1875 60.9562 19 59.977 19C59.0187 19 58.1957 19.2604 57.5082 19.7812C56.8416 20.2812 56.2687 20.9375 55.7895 21.75C55.3103 22.5625 54.9249 23.4792 54.6332 24.5C54.3624 25.5208 54.1541 26.5521 54.0082 27.5938C53.8624 28.6146 53.7582 29.5938 53.6957 30.5312C53.6541 31.4688 53.6332 32.2604 53.6332 32.9062V51H43.102V34.1875C43.102 33.4583 43.1124 32.5833 43.1332 31.5625C43.1541 30.5208 43.1228 29.4375 43.0395 28.3125C42.977 27.1875 42.8416 26.0729 42.6332 24.9688C42.4457 23.8438 42.1332 22.8438 41.6957 21.9688C41.2791 21.0938 40.7062 20.3854 39.977 19.8438C39.2478 19.2812 38.3312 19 37.227 19C36.2895 19 35.4978 19.2604 34.852 19.7812C34.227 20.3021 33.6957 20.9792 33.2582 21.8125C32.8416 22.625 32.5082 23.5521 32.2582 24.5938C32.0291 25.6146 31.852 26.6458 31.727 27.6875C31.6228 28.7083 31.5603 29.6875 31.5395 30.625C31.5187 31.5417 31.5082 32.3021 31.5082 32.9062V51H20.9145V14.9062H24.977L28.852 23.3125C29.727 20.3958 31.102 18.125 32.977 16.5C34.8728 14.8542 37.3832 14.0312 40.5082 14.0312C43.3207 14.0312 45.6541 14.6146 47.5082 15.7812C49.3624 16.9479 50.8207 18.8438 51.8832 21.4688C52.4874 20.3229 53.1541 19.2917 53.8832 18.375C54.6332 17.4583 55.4562 16.6771 56.352 16.0312C57.2687 15.3854 58.2791 14.8958 59.3832 14.5625C60.4874 14.2083 61.7062 14.0312 63.0395 14.0312C65.4978 14.0312 67.5916 14.4375 69.3207 15.25C71.0707 16.0417 72.4978 17.1458 73.602 18.5625C74.7062 19.9792 75.5082 21.6667 76.0082 23.625C76.5082 25.5625 76.7582 27.6667 76.7582 29.9375ZM119.045 51H108.483V46.6875C107.233 48.3958 105.722 49.6667 103.951 50.5C102.201 51.3125 100.274 51.7188 98.1702 51.7188C95.4202 51.7188 92.9619 51.2292 90.7952 50.25C88.6286 49.2708 86.7952 47.9375 85.2952 46.25C83.7952 44.5417 82.6494 42.5417 81.8577 40.25C81.0661 37.9583 80.6702 35.5 80.6702 32.875C80.6702 30.25 81.0661 27.7917 81.8577 25.5C82.6494 23.2083 83.7952 21.2188 85.2952 19.5312C86.7952 17.8229 88.6286 16.4792 90.7952 15.5C92.9619 14.5208 95.4202 14.0312 98.1702 14.0312C99.5661 14.0312 100.889 14.2396 102.139 14.6562C103.41 15.0729 104.566 15.6667 105.608 16.4375C106.67 17.1875 107.597 18.1042 108.389 19.1875C109.201 20.25 109.837 21.4375 110.295 22.75L114.983 14.9062H119.045V51ZM108.42 32.875C108.42 31.9375 108.368 30.9479 108.264 29.9062C108.181 28.8646 108.024 27.8333 107.795 26.8125C107.566 25.7917 107.243 24.8229 106.826 23.9062C106.431 22.9688 105.91 22.1458 105.264 21.4375C104.639 20.7083 103.879 20.1354 102.983 19.7188C102.087 19.3021 101.045 19.0938 99.8577 19.0938C98.6702 19.0938 97.639 19.3125 96.764 19.75C95.889 20.1667 95.139 20.7396 94.514 21.4688C93.889 22.1771 93.3681 23 92.9515 23.9375C92.5556 24.875 92.2431 25.8542 92.014 26.875C91.7848 27.8958 91.6181 28.9271 91.514 29.9688C91.4306 30.9896 91.389 31.9583 91.389 32.875C91.389 33.7917 91.4306 34.7708 91.514 35.8125C91.6181 36.8542 91.7848 37.8854 92.014 38.9062C92.2431 39.9271 92.5556 40.9062 92.9515 41.8438C93.3681 42.7812 93.889 43.6146 94.514 44.3438C95.139 45.0521 95.889 45.625 96.764 46.0625C97.639 46.4792 98.6702 46.6875 99.8577 46.6875C100.941 46.6875 101.899 46.4688 102.733 46.0312C103.587 45.5729 104.326 44.9688 104.951 44.2188C105.597 43.4688 106.139 42.6146 106.576 41.6562C107.014 40.6979 107.368 39.7083 107.639 38.6875C107.91 37.6667 108.108 36.6562 108.233 35.6562C108.358 34.6354 108.42 33.7083 108.42 32.875ZM163.145 46.6562C163.145 49.5312 162.718 52.2396 161.864 54.7812C161.009 57.3229 159.77 59.5417 158.145 61.4375C156.52 63.3542 154.52 64.8646 152.145 65.9688C149.791 67.0938 147.103 67.6562 144.082 67.6562C142.416 67.6562 140.728 67.4688 139.02 67.0938C137.332 66.7188 135.728 66.1354 134.207 65.3438C132.707 64.5729 131.353 63.5833 130.145 62.375C128.957 61.1875 128.02 59.7812 127.332 58.1562L131.895 56.4375C132.291 57.4583 132.801 58.3958 133.426 59.25C134.072 60.1042 134.811 60.8333 135.645 61.4375C136.478 62.0625 137.395 62.5417 138.395 62.875C139.395 63.2292 140.447 63.4062 141.551 63.4062C143.634 63.4062 145.374 62.9792 146.77 62.125C148.186 61.2708 149.322 60.1562 150.176 58.7812C151.03 57.4062 151.645 55.8438 152.02 54.0938C152.395 52.3646 152.582 50.6042 152.582 48.8125V46.6875C151.332 48.3958 149.822 49.6667 148.051 50.5C146.301 51.3125 144.374 51.7188 142.27 51.7188C139.52 51.7188 137.061 51.2292 134.895 50.25C132.728 49.2708 130.895 47.9375 129.395 46.25C127.895 44.5417 126.749 42.5417 125.957 40.25C125.166 37.9583 124.77 35.5 124.77 32.875C124.77 30.25 125.166 27.7917 125.957 25.5C126.749 23.2083 127.895 21.2188 129.395 19.5312C130.895 17.8229 132.728 16.4792 134.895 15.5C137.061 14.5208 139.52 14.0312 142.27 14.0312C143.666 14.0312 144.989 14.2396 146.239 14.6562C147.509 15.0729 148.666 15.6667 149.707 16.4375C150.77 17.1875 151.697 18.1042 152.489 19.1875C153.301 20.25 153.936 21.4375 154.395 22.75L159.082 14.9062H163.145V46.6562ZM152.52 32.875C152.52 31.9375 152.468 30.9479 152.364 29.9062C152.28 28.8646 152.124 27.8333 151.895 26.8125C151.666 25.7917 151.343 24.8229 150.926 23.9062C150.53 22.9688 150.009 22.1458 149.364 21.4375C148.739 20.7083 147.978 20.1354 147.082 19.7188C146.186 19.3021 145.145 19.0938 143.957 19.0938C142.77 19.0938 141.739 19.3125 140.864 19.75C139.989 20.1667 139.239 20.7396 138.614 21.4688C137.989 22.1771 137.468 23 137.051 23.9375C136.655 24.875 136.343 25.8542 136.114 26.875C135.884 27.8958 135.718 28.9271 135.614 29.9688C135.53 30.9896 135.489 31.9583 135.489 32.875C135.489 33.7917 135.53 34.7708 135.614 35.8125C135.718 36.8542 135.884 37.8854 136.114 38.9062C136.343 39.9271 136.655 40.9062 137.051 41.8438C137.468 42.7812 137.989 43.6146 138.614 44.3438C139.239 45.0521 139.989 45.625 140.864 46.0625C141.739 46.4792 142.77 46.6875 143.957 46.6875C145.041 46.6875 145.999 46.4688 146.832 46.0312C147.686 45.5729 148.426 44.9688 149.051 44.2188C149.697 43.4688 150.239 42.6146 150.676 41.6562C151.114 40.6979 151.468 39.7083 151.739 38.6875C152.009 37.6667 152.207 36.6562 152.332 35.6562C152.457 34.6354 152.52 33.7083 152.52 32.875ZM179.588 33.875C180.88 34.1667 182.171 34.3958 183.463 34.5625C184.755 34.7292 186.057 34.8125 187.369 34.8125C188.744 34.8125 190.015 34.6875 191.182 34.4375C192.369 34.1667 193.39 33.7292 194.244 33.125C195.119 32.5 195.807 31.6771 196.307 30.6562C196.807 29.6354 197.057 28.3646 197.057 26.8438C197.057 25.6146 196.89 24.4896 196.557 23.4688C196.223 22.4479 195.723 21.5729 195.057 20.8438C194.411 20.1146 193.609 19.5521 192.651 19.1562C191.692 18.7396 190.578 18.5312 189.307 18.5312C188.119 18.5312 187.046 18.75 186.088 19.1875C185.151 19.625 184.317 20.2188 183.588 20.9688C182.88 21.6979 182.265 22.5521 181.744 23.5312C181.244 24.5104 180.828 25.5312 180.494 26.5938C180.161 27.6562 179.921 28.7292 179.776 29.8125C179.63 30.8958 179.557 31.9167 179.557 32.875C179.557 33.0417 179.557 33.2083 179.557 33.375C179.557 33.5417 179.567 33.7083 179.588 33.875ZM205.619 26.75C205.619 28.2292 205.38 29.5521 204.901 30.7188C204.421 31.8646 203.765 32.875 202.932 33.75C202.119 34.625 201.171 35.3646 200.088 35.9688C199.005 36.5729 197.848 37.0729 196.619 37.4688C195.39 37.8438 194.119 38.1146 192.807 38.2812C191.515 38.4479 190.255 38.5312 189.026 38.5312C187.463 38.5312 185.921 38.4271 184.401 38.2188C182.88 37.9896 181.38 37.6354 179.901 37.1562C180.13 38.5312 180.494 39.8438 180.994 41.0938C181.494 42.3229 182.161 43.4062 182.994 44.3438C183.828 45.2604 184.848 45.9896 186.057 46.5312C187.286 47.0729 188.734 47.3438 190.401 47.3438C191.505 47.3438 192.557 47.1771 193.557 46.8438C194.557 46.5104 195.473 46.0417 196.307 45.4375C197.14 44.8333 197.869 44.1146 198.494 43.2812C199.14 42.4479 199.661 41.5208 200.057 40.5L204.619 42.1875C203.932 43.8333 202.984 45.2604 201.776 46.4688C200.588 47.6562 199.234 48.6458 197.713 49.4375C196.213 50.2083 194.609 50.7812 192.901 51.1562C191.213 51.5312 189.536 51.7188 187.869 51.7188C185.119 51.7188 182.578 51.2604 180.244 50.3438C177.911 49.4062 175.901 48.1042 174.213 46.4375C172.526 44.7708 171.203 42.7812 170.244 40.4688C169.286 38.1562 168.807 35.625 168.807 32.875C168.807 30.125 169.286 27.5938 170.244 25.2812C171.203 22.9688 172.526 20.9792 174.213 19.3125C175.901 17.6458 177.911 16.3542 180.244 15.4375C182.578 14.5 185.119 14.0312 187.869 14.0312C189.203 14.0312 190.567 14.125 191.963 14.3125C193.359 14.5 194.713 14.8021 196.026 15.2188C197.338 15.6146 198.578 16.1354 199.744 16.7812C200.911 17.4271 201.921 18.2292 202.776 19.1875C203.651 20.125 204.338 21.2188 204.838 22.4688C205.359 23.7188 205.619 25.1458 205.619 26.75ZM224.219 51H211.812V6H236.125C238.229 6 240.24 6.28125 242.156 6.84375C244.094 7.40625 245.802 8.26042 247.281 9.40625C248.76 10.5312 249.938 11.9583 250.812 13.6875C251.708 15.3958 252.156 17.4062 252.156 19.7188C252.156 21.1771 251.948 22.5521 251.531 23.8438C251.115 25.1146 250.531 26.2812 249.781 27.3438C249.052 28.4062 248.188 29.3646 247.188 30.2188C246.188 31.0729 245.094 31.7917 243.906 32.375C242.719 32.9583 241.458 33.4062 240.125 33.7188C238.812 34.0312 237.479 34.1875 236.125 34.1875H224.219V51ZM239.594 19.7188C239.594 16.8229 238.854 14.5521 237.375 12.9062C235.917 11.2396 233.708 10.4062 230.75 10.4062H224.219V29.9375H230.75C232.333 29.9375 233.677 29.6875 234.781 29.1875C235.906 28.6667 236.823 27.9479 237.531 27.0312C238.24 26.1146 238.76 25.0417 239.094 23.8125C239.427 22.5625 239.594 21.1979 239.594 19.7188ZM267.568 6.1875C267.568 6.97917 267.412 7.72917 267.099 8.4375C266.808 9.14583 266.402 9.76042 265.881 10.2812C265.36 10.8021 264.745 11.2188 264.037 11.5312C263.329 11.8229 262.579 11.9688 261.787 11.9688C260.995 11.9688 260.245 11.8229 259.537 11.5312C258.849 11.2188 258.245 10.8021 257.724 10.2812C257.204 9.76042 256.787 9.14583 256.474 8.4375C256.183 7.72917 256.037 6.97917 256.037 6.1875C256.037 5.39583 256.183 4.65625 256.474 3.96875C256.787 3.26042 257.204 2.64583 257.724 2.125C258.245 1.60417 258.849 1.19792 259.537 0.90625C260.245 0.59375 260.995 0.4375 261.787 0.4375C262.579 0.4375 263.329 0.59375 264.037 0.90625C264.745 1.19792 265.36 1.60417 265.881 2.125C266.402 2.64583 266.808 3.26042 267.099 3.96875C267.412 4.65625 267.568 5.39583 267.568 6.1875ZM267.099 51H256.506V14.9375H267.099V51ZM308.199 23.8438L303.636 25.6562C302.907 23.3646 301.689 21.6042 299.98 20.375C298.272 19.1458 296.22 18.5312 293.824 18.5312C292.532 18.5312 291.376 18.7396 290.355 19.1562C289.355 19.5521 288.47 20.1042 287.699 20.8125C286.949 21.5208 286.303 22.3438 285.761 23.2812C285.241 24.2188 284.814 25.2188 284.48 26.2812C284.147 27.3438 283.907 28.4479 283.761 29.5938C283.616 30.7188 283.543 31.8125 283.543 32.875C283.543 34.0208 283.605 35.1771 283.73 36.3438C283.855 37.5104 284.064 38.6354 284.355 39.7188C284.668 40.7812 285.074 41.7812 285.574 42.7188C286.074 43.6354 286.699 44.4375 287.449 45.125C288.22 45.8125 289.126 46.3542 290.168 46.75C291.23 47.1458 292.449 47.3438 293.824 47.3438C294.928 47.3438 295.98 47.1771 296.98 46.8438C297.98 46.5104 298.897 46.0417 299.73 45.4375C300.564 44.8333 301.303 44.1146 301.949 43.2812C302.595 42.4479 303.105 41.5208 303.48 40.5L308.074 42.1875C307.386 43.8333 306.47 45.2604 305.324 46.4688C304.199 47.6562 302.918 48.6458 301.48 49.4375C300.043 50.2083 298.501 50.7812 296.855 51.1562C295.209 51.5312 293.543 51.7188 291.855 51.7188C289.126 51.7188 286.595 51.2604 284.261 50.3438C281.928 49.4062 279.907 48.1042 278.199 46.4375C276.511 44.75 275.189 42.7604 274.23 40.4688C273.272 38.1562 272.793 35.625 272.793 32.875C272.793 30.1042 273.261 27.5625 274.199 25.25C275.157 22.9375 276.48 20.9479 278.168 19.2812C279.855 17.6146 281.866 16.3229 284.199 15.4062C286.532 14.4896 289.084 14.0312 291.855 14.0312C293.605 14.0312 295.314 14.2292 296.98 14.625C298.647 15 300.189 15.5938 301.605 16.4062C303.043 17.1979 304.324 18.2083 305.449 19.4375C306.595 20.6667 307.511 22.1354 308.199 23.8438ZM323.923 51H313.361V1.625H323.923V34.0312C325.653 32.7812 327.351 31.4062 329.017 29.9062C330.705 28.4062 332.309 26.8333 333.83 25.1875C335.351 23.5208 336.757 21.8229 338.048 20.0938C339.361 18.3646 340.507 16.6354 341.486 14.9062H348.673C347.215 17.3646 345.486 19.8229 343.486 22.2812C341.486 24.7188 339.309 27.0521 336.955 29.2812L348.798 51H337.142L328.736 35.9375C327.173 37 325.569 37.9792 323.923 38.875V51ZM360.398 33.875C361.69 34.1667 362.981 34.3958 364.273 34.5625C365.565 34.7292 366.867 34.8125 368.179 34.8125C369.554 34.8125 370.825 34.6875 371.992 34.4375C373.179 34.1667 374.2 33.7292 375.054 33.125C375.929 32.5 376.617 31.6771 377.117 30.6562C377.617 29.6354 377.867 28.3646 377.867 26.8438C377.867 25.6146 377.7 24.4896 377.367 23.4688C377.033 22.4479 376.533 21.5729 375.867 20.8438C375.221 20.1146 374.419 19.5521 373.461 19.1562C372.502 18.7396 371.388 18.5312 370.117 18.5312C368.929 18.5312 367.856 18.75 366.898 19.1875C365.961 19.625 365.127 20.2188 364.398 20.9688C363.69 21.6979 363.075 22.5521 362.554 23.5312C362.054 24.5104 361.638 25.5312 361.304 26.5938C360.971 27.6562 360.731 28.7292 360.586 29.8125C360.44 30.8958 360.367 31.9167 360.367 32.875C360.367 33.0417 360.367 33.2083 360.367 33.375C360.367 33.5417 360.377 33.7083 360.398 33.875ZM386.429 26.75C386.429 28.2292 386.19 29.5521 385.711 30.7188C385.231 31.8646 384.575 32.875 383.742 33.75C382.929 34.625 381.981 35.3646 380.898 35.9688C379.815 36.5729 378.658 37.0729 377.429 37.4688C376.2 37.8438 374.929 38.1146 373.617 38.2812C372.325 38.4479 371.065 38.5312 369.836 38.5312C368.273 38.5312 366.731 38.4271 365.211 38.2188C363.69 37.9896 362.19 37.6354 360.711 37.1562C360.94 38.5312 361.304 39.8438 361.804 41.0938C362.304 42.3229 362.971 43.4062 363.804 44.3438C364.638 45.2604 365.658 45.9896 366.867 46.5312C368.096 47.0729 369.544 47.3438 371.211 47.3438C372.315 47.3438 373.367 47.1771 374.367 46.8438C375.367 46.5104 376.283 46.0417 377.117 45.4375C377.95 44.8333 378.679 44.1146 379.304 43.2812C379.95 42.4479 380.471 41.5208 380.867 40.5L385.429 42.1875C384.742 43.8333 383.794 45.2604 382.586 46.4688C381.398 47.6562 380.044 48.6458 378.523 49.4375C377.023 50.2083 375.419 50.7812 373.711 51.1562C372.023 51.5312 370.346 51.7188 368.679 51.7188C365.929 51.7188 363.388 51.2604 361.054 50.3438C358.721 49.4062 356.711 48.1042 355.023 46.4375C353.336 44.7708 352.013 42.7812 351.054 40.4688C350.096 38.1562 349.617 35.625 349.617 32.875C349.617 30.125 350.096 27.5938 351.054 25.2812C352.013 22.9688 353.336 20.9792 355.023 19.3125C356.711 17.6458 358.721 16.3542 361.054 15.4375C363.388 14.5 365.929 14.0312 368.679 14.0312C370.013 14.0312 371.377 14.125 372.773 14.3125C374.169 14.5 375.523 14.8021 376.836 15.2188C378.148 15.6146 379.388 16.1354 380.554 16.7812C381.721 17.4271 382.731 18.2292 383.586 19.1875C384.461 20.125 385.148 21.2188 385.648 22.4688C386.169 23.7188 386.429 25.1458 386.429 26.75ZM422.622 18.0938L416.685 27.9375C416.435 27.1042 416.112 26.1667 415.716 25.125C415.32 24.0833 414.831 23.1146 414.247 22.2188C413.664 21.3021 412.966 20.5417 412.154 19.9375C411.341 19.3125 410.404 19 409.341 19C408.362 19 407.508 19.25 406.779 19.75C406.07 20.25 405.466 20.9062 404.966 21.7188C404.466 22.5104 404.05 23.4167 403.716 24.4375C403.404 25.4375 403.154 26.4583 402.966 27.5C402.8 28.5208 402.685 29.5104 402.622 30.4688C402.56 31.4062 402.529 32.2188 402.529 32.9062V51H391.935V14.9062H395.997L400.279 23.3125C400.862 21.9583 401.529 20.7188 402.279 19.5938C403.029 18.4479 403.893 17.4688 404.872 16.6562C405.852 15.8229 406.956 15.1771 408.185 14.7188C409.435 14.2604 410.841 14.0312 412.404 14.0312C413.216 14.0312 414.122 14.1042 415.122 14.25C416.122 14.375 417.102 14.6042 418.06 14.9375C419.018 15.25 419.904 15.6667 420.716 16.1875C421.529 16.7083 422.164 17.3438 422.622 18.0938Z" fill="black"/>
</svg>
